<svg xmlns="http://www.w3.org/2000/svg" viewBox="0 0 669.98 140">
	<path fill="#AB0101"
	      d="M24.757 123.786q-4.423 0-7.439-3.217t-3.016-8.042V82.772q0-5.83-.804-7.64-.603-1.81-3.217-1.81H5.657q-2.211 0-3.82-1.608Q.43 69.904.43 67.291q0-2.413 1.407-4.021 1.609-1.81 3.82-1.81h4.624q2.614 0 3.217-1.809.804-1.81.804-7.64V22.457q0-4.825 3.016-8.042 3.016-3.217 7.44-3.217h11.057q2.211 0 3.418 1.608 1.407 1.408 1.407 3.62 0 4.623-4.825 4.623h-5.429q-3.216 0-4.423 1.207-1.005 1.206-1.005 4.423V51.81q0 3.016-.603 7.64t-4.423 7.841q3.82 3.217 4.423 8.042.603 4.624.603 7.64v25.332q0 3.217 1.005 4.423 1.207 1.207 4.423 1.207h5.429q4.825 0 4.825 4.624 0 2.211-1.407 3.619-1.207 1.608-3.418 1.608zm54.887-19.1q-5.83 0-11.862-1.608-6.032-1.407-10.656-4.624-2.413-2.212-2.413-4.825 0-2.614 2.01-4.625 2.212-2.01 4.826-2.01 1.407 0 2.815.804 3.619 2.212 8.243 3.619 4.825 1.206 9.047 1.206 4.021 0 6.836-1.407 3.016-1.407 3.016-4.624 0-3.217-2.815-4.825-2.815-1.609-9.65-2.413-2.815-.402-6.836-1.005-3.82-.603-7.64-2.212-3.82-1.608-6.434-4.825-2.613-3.217-2.613-8.645 0-8.846 6.433-14.074 6.635-5.227 17.693-5.227 6.433 0 12.063 1.608 5.83 1.609 8.645 4.021 2.211 1.81 2.211 4.222 0 2.614-1.81 4.625-1.809 2.01-4.422 2.01-1.408 0-2.614-.603-3.217-1.81-7.238-2.614-3.82-1.005-7.439-1.005-4.222 0-7.237 1.407-2.815 1.207-2.815 4.021 0 2.01 1.608 3.62 1.81 1.407 9.048 2.412 3.417.402 7.64 1.206 4.423.804 8.444 2.614 4.02 1.608 6.634 5.227 2.614 3.62 2.614 9.852 0 6.433-3.619 10.655-3.619 4.021-9.45 6.032-5.629 2.01-12.263 2.01zm87.859 0q-2.614 0-4.826-1.608-2.01-1.609-2.01-4.624V73.12q0-8.846-4.021-13.068-3.82-4.222-10.254-4.222-8.243 0-12.063 5.428-3.619 5.228-3.619 11.661v25.534q0 3.016-2.211 4.624-2.01 1.608-4.624 1.608t-4.825-1.608q-2.011-1.609-2.011-4.624V51.207q0-3.418 2.01-5.026 2.212-1.81 4.826-1.81 2.613 0 4.624 1.81 2.211 1.608 2.211 5.026 3.418-3.418 8.847-5.63 5.428-2.211 10.253-2.211 11.259 0 17.894 7.238 6.634 7.238 6.634 21.311v26.539q0 3.016-2.211 4.624-2.212 1.608-4.624 1.608zm28.951 0q-2.614 0-4.825-1.608-2.01-1.609-2.01-4.624V50.202q0-3.418 2.01-5.027 2.211-1.809 4.825-1.809 2.614 0 4.624 1.81 2.212 1.608 2.212 5.026v48.252q0 3.016-2.212 4.624-2.01 1.608-4.624 1.608zm.201-72.378q-3.82 0-6.635-2.412-2.613-2.614-2.613-6.233 0-3.418 2.613-5.83 2.815-2.614 6.635-2.614 3.619 0 6.233 2.614 2.613 2.412 2.613 5.83 0 3.619-2.613 6.233-2.614 2.412-6.233 2.412zm49.659 72.378q-13.47 0-22.115-8.645-8.645-8.645-8.645-22.517 0-8.847 4.02-15.682 4.022-6.836 10.857-10.656 7.037-3.82 15.883-3.82 12.063 0 20.507 5.63 2.815 1.809 2.815 5.026 0 3.216-2.01 5.026-2.011 1.81-4.625 1.81-1.81 0-3.216-.805-7.44-5.026-13.873-4.423-7.84.804-12.264 5.428-4.423 4.424-4.423 12.667 0 8.645 4.624 13.671 4.825 4.825 13.47 4.825 7.64 0 15.28-5.83 1.609-1.408 4.222-1.408 3.016 0 4.423 2.413 1.609 2.212 1.609 4.222 0 2.815-2.614 5.227-5.026 4.423-11.058 6.032-6.031 1.81-12.867 1.81zm44.432 0q-2.613 0-4.825-1.608-2.01-1.609-2.01-4.624v-76.4q0-3.417 2.01-5.026 2.212-1.809 4.825-1.809 2.614 0 4.624 1.81 2.212 1.608 2.212 5.026v39.204q0 2.011.603 2.011t1.608-.804l24.93-17.894q2.212-1.206 4.022-1.206 2.814 0 4.624 2.01 1.81 1.81 1.81 4.022 0 3.417-3.218 5.428l-20.507 12.867q-1.81 1.206-1.81 2.413 0 1.206 1.408 2.613l21.915 20.708q2.211 2.614 2.211 4.826 0 2.613-2.01 4.423-2.01 2.01-4.624 2.01t-4.826-2.211l-23.522-23.322q-1.408-1.407-1.81-1.407-.804 0-.804 2.412v18.296q0 3.016-2.212 4.624-2.01 1.608-4.624 1.608zm85.849 0q-5.63 0-10.053-2.01-4.423-1.81-7.64-5.026v.804q0 3.016-2.211 4.624-2.01 1.608-4.624 1.608t-4.826-1.608q-2.01-1.608-2.01-4.624v-76.4q0-3.417 2.01-5.026 2.212-1.809 4.826-1.809 2.613 0 4.624 1.81 2.211 1.608 2.211 5.026v28.147q3.217-3.217 7.64-5.027 4.423-1.809 10.053-1.809 8.846 0 15.48 4.021 6.836 3.82 10.656 10.656 3.82 6.835 3.82 15.48 0 8.847-3.82 16.085-3.82 7.036-10.656 11.057-6.634 4.021-15.48 4.021zm-1.207-12.465q7.841 0 12.666-5.026 4.826-5.227 4.826-13.671 0-8.042-4.826-12.868-4.825-4.825-12.666-4.825-7.64 0-12.063 4.825-4.423 4.826-4.423 12.868 0 8.444 4.423 13.67 4.423 5.027 12.063 5.027zm50.262 12.465q-2.613 0-4.824-1.608-2.01-1.609-2.01-4.624V50.202q0-3.418 2.01-5.027 2.211-1.809 4.825-1.809 2.613 0 4.624 1.81 2.211 1.608 2.211 5.026v48.252q0 3.016-2.211 4.624-2.01 1.608-4.624 1.608zm.202-72.378q-3.82 0-6.635-2.412-2.613-2.614-2.613-6.233 0-3.418 2.613-5.83 2.815-2.614 6.635-2.614 3.619 0 6.232 2.614 2.614 2.412 2.614 5.83 0 3.619-2.614 6.233-2.613 2.412-6.232 2.412zm45.638 72.378q-7.84 0-12.867-4.825-5.026-4.825-5.026-14.476V59.852q0-2.01-2.01-2.01h-3.62q-2.613 0-4.423-1.609-1.81-1.81-1.81-4.423 0-2.815 1.81-4.624 1.81-1.81 4.423-1.81h3.62q2.01 0 2.01-2.01V26.478q0-2.815 1.81-4.423 2.01-1.81 4.824-1.81 3.016 0 4.826 1.81 2.01 1.608 2.01 4.423v16.888q0 2.01 2.01 2.01h10.857q2.413 0 4.222 1.81 1.81 1.81 1.81 4.624 0 2.614-1.81 4.423-1.608 1.609-4.423 1.609h-10.655q-2.011 0-2.011 2.01v23.724q0 8.444 6.836 8.444 2.01 0 4.222-.603 2.211-.603 3.016-.603 2.814 0 4.222 1.81 1.608 1.809 1.608 4.221 0 1.81-1.005 3.62-1.006 1.608-3.217 2.412-2.212.804-5.63 1.206-3.216.603-5.629.603zm37.797 1.006q-3.82 0-6.634-2.614-2.614-2.413-2.614-5.83 0-3.62 2.614-6.032 2.815-2.614 6.634-2.614 3.62 0 6.233 2.614 2.614 2.413 2.614 6.031 0 3.418-2.614 5.83-2.614 2.615-6.233 2.615zm23.323 26.136q-4.022 0-7.037-1.005-4.423-1.609-4.423-6.032 0-3.619 2.613-5.227 2.413-1.608 4.624-.804 1.006.2 1.81.2.804.202 1.608.202 3.418 0 5.429-2.212 2.01-2.211 2.01-7.237V49.599q0-3.016 2.212-4.625 2.211-1.608 4.423-1.608 2.613 0 4.624 1.81 2.211 1.608 2.211 4.423v60.516q0 10.454-6.031 16.084-5.83 5.629-14.074 5.629zm13.872-99.52q-3.82 0-6.635-2.412-2.613-2.614-2.613-6.233 0-3.418 2.613-5.83 2.815-2.614 6.635-2.614 3.619 0 6.232 2.614 2.614 2.412 2.614 5.83 0 3.619-2.614 6.233-2.613 2.412-6.232 2.412zm43.828 72.378q-5.83 0-11.861-1.608-6.032-1.407-10.656-4.624-2.412-2.212-2.412-4.825 0-2.614 2.01-4.625 2.212-2.01 4.825-2.01 1.408 0 2.815.804 3.619 2.212 8.243 3.619 4.825 1.206 9.047 1.206 4.021 0 6.836-1.407 3.016-1.407 3.016-4.624 0-3.217-2.815-4.825-2.815-1.609-9.65-2.413-2.815-.402-6.836-1.005-3.82-.603-7.64-2.212-3.82-1.608-6.434-4.825-2.613-3.217-2.613-8.645 0-8.846 6.433-14.074 6.635-5.227 17.693-5.227 6.433 0 12.063 1.608 5.83 1.609 8.645 4.021 2.211 1.81 2.211 4.222 0 2.614-1.809 4.625-1.81 2.01-4.423 2.01-1.407 0-2.614-.603-3.217-1.81-7.238-2.614-3.82-1.005-7.438-1.005-4.222 0-7.238 1.407-2.815 1.207-2.815 4.021 0 2.01 1.609 3.62 1.809 1.407 9.047 2.412 3.418.402 7.64 1.206 4.423.804 8.444 2.614 4.02 1.608 6.634 5.227 2.614 3.62 2.614 9.852 0 6.433-3.619 10.655-3.619 4.021-9.45 6.032-5.629 2.01-12.263 2.01zm55.29 19.1h-11.058q-2.01 0-3.418-1.608-1.407-1.408-1.407-3.62 0-4.623 4.825-4.623h5.428q3.217 0 4.222-1.207 1.207-1.206 1.207-4.423V82.973q0-3.016.603-7.64.603-4.825 4.423-8.042-3.82-3.217-4.423-7.841-.603-4.624-.603-7.64V26.68q0-3.217-1.207-4.423-1.005-1.207-4.222-1.207h-5.428q-4.825 0-4.825-4.624 0-2.211 1.407-3.619 1.407-1.608 3.418-1.608H645.6q4.624 0 7.438 3.217 3.016 3.217 3.016 8.042V52.01q0 5.83.603 7.64.805 1.81 3.418 1.81h4.624q2.212 0 3.62 1.809 1.608 1.608 1.608 4.021 0 2.614-1.609 4.423-1.407 1.608-3.619 1.608h-4.624q-2.613 0-3.418 1.81-.603 1.81-.603 7.64v29.755q0 4.825-3.016 8.042-2.814 3.217-7.438 3.217z"/>
</svg>
